# xmcd
#
# Track frame offsets:
#	150
#	18535
#	32702
#	45912
#	59771
#	79625
#	91519
#	103039
#	113634
#	133037
#	151204
#	164581
#	181032
#	193510
#	211256
#	228553
#	240523
#	252556
#	265837
#	282025
#
# Disc length: 3955 seconds
#
# Revision: 0
# Processed by: cddbd v1.5PL3 Copyright (c) Steve Scherf et al.
# Submitted via: dBpowerAMP V4.0
#
DISCID=040f7114
DTITLE=Hank Williams, Jr. - Hank Williams, Jr.'s Greatest Hits, Vol.1 and 2
DYEAR=1994
DGENRE=Country
TTITLE0=Family Tradition
TTITLE1=Whiskey Bent and Hell Bound
TTITLE2=Women I've Never Had
TTITLE3=Old Habits
TTITLE4=Kaw-Liga
TTITLE5=Dixie on My Mind
TTITLE6=Texas Women
TTITLE7=American Dream
TTITLE8=Country Boy Can Survive
TTITLE9=All My Rowdy Friends (Have Settled Down)
TTITLE10=All My Rowdy Friends Are Coming over Tonight 
TTITLE11=Man of Steel
TTITLE12=Honky Tonkin'
TTITLE13=Conversation
TTITLE14=Queen of My Heart
TTITLE15=Two Old Cats Like Us (with Ray Charles)
TTITLE16=Gonna Go Huntin' Tonight
TTITLE17=Attitude Adjustment
TTITLE18=Major Moves
TTITLE19=Leave Them Boys Alone
EXTD=
EXTT0=
EXTT1=
EXTT2=
EXTT3=
EXTT4=
EXTT5=
EXTT6=
EXTT7=
EXTT8=
EXTT9=
EXTT10=
EXTT11=
EXTT12=
EXTT13=
EXTT14=
EXTT15=
EXTT16=
EXTT17=
EXTT18=
EXTT19=
PLAYORDER=
